<?xml version="1.0" encoding="UTF-8"?>
<svg width="25.146mm" height="20.061mm" version="1.1" viewBox="0 0 25.146 20.061" xmlns="http://www.w3.org/2000/svg">
<g transform="matrix(.35278 0 0 -.35278 -28.713 345.36)" fill="#f7fbfd">
<path d="m112.71 938.3c1.5691 2.9742 6.3108 2.5622 7.255-0.714 0.8664-3.0063-2.0071-6.5527-4.0986-8.4229-2.3931-2.1395-5.4479-3.4526-8.6326-3.8044-0.606-0.067-1.2154-0.1002-1.8243-0.1002-3.4037 0-6.5518 1.0971-9.1081 2.956-0.0122 6e-3 -0.021 0.0152-0.0337 0.0269-0.6944 0.5029-1.3464 1.0693-1.9469 1.685-0.457 0.4393-0.8958 0.887-1.3161 1.3502-4.4397 4.8659-7.1118 11.378-6.9994 18.508 0.2287 14.424 12.014 26.189 26.439 26.396 8.2275 0.1153 15.625-3.4741 20.622-9.2054-5.1982 7.3283-13.778 12.088-23.465 12.005-15.4-0.1281-28.008-12.673-28.206-28.069-0.1954-14.988 11.198-27.356 25.784-28.709 6.866-0.6372 13.945 2.2377 18.374 7.5346 1.1347 1.3556 2.0915 2.8979 2.7816 4.5257 0.7975 1.8834 1.2803 4.4636 2.849 5.8833 0.213 0.1925 0.4418 0.3655 0.6885 0.5121 0.6456 0.3866 1.4016 0.6089 2.2182 0.6089 1.9132 0 3.6798-1.4191 4.1807-3.2615-0.0337 0.1173-0.0313 0.2385-0.043 0.3582-0.0362 0.2649-0.0553 0.5332-0.0553 0.8103 0 1.5144 0.5337 2.9067 1.4236 3.9979 0.5302 0.649 1.1914 1.1943 1.9406 1.5877 0.884 0.4721 1.8892 0.7375 2.9619 0.7375 3.4916 0 6.3196-2.831 6.3196-6.3231 0-1.0786-0.2678-2.0931-0.7467-2.98 0.7467 1.0419 1.3835 2.1815 1.8986 3.4095 2.4737 8.0658-1.7735 16.747-9.7928 19.672-0.9905 0.3626-1.9899 0.6211-2.9893 0.78-0.2961 0.0454-0.5888 0.0826-0.8869 0.1094-1.901 0.1979-3.7937 0.0396-5.594-0.4295-0.0797-0.0245-0.1559-0.0455-0.2355-0.0611-1.3801-0.3773-2.7025-0.9412-3.93-1.6728-0.5244-0.3074-1.0238-0.649-1.5115-1.0145-0.5484-0.4144-1.0698-0.865-1.5599-1.3556-6e-3 -6e-3 -0.0157-0.0127-0.022-0.0215-5e-3 9e-3 -0.0117 0.0151-0.021 0.0215-0.1159 0.1153-0.2346 0.2312-0.3563 0.3411-6e-3 6e-3 -9e-3 0.0152-0.0151 0.0181-0.3812 0.3538-0.777 0.6856-1.1885 0.9964-0.4843 0.3655-0.9872 0.7071-1.5081 1.0145-1.231 0.7316-2.5539 1.2955-3.9344 1.6728-0.0792 0.0156-0.1549 0.0366-0.2311 0.0611-3.0289 0.7892-6.3134 0.6949-9.4732-0.4599-2.203-0.8048-4.1196-2.0388-5.6922-3.5771-4.1499-4.0683-5.896-10.241-4.101-16.095 0.515-1.228 1.1513-2.3676 1.901-3.4095-0.478 0.8869-0.7497 1.9014-0.7497 2.98 0 3.4921 2.831 6.3231 6.3231 6.3231 3.4917 0 6.3221-2.831 6.3221-6.3231"/>
<path d="m128.31 964.87-2.8535-1.9313-2.8534 1.9313c-0.4506 0.3044-1.013-0.1838-0.7745-0.6725l1.9742-4.0468c0.2502-0.6665 0.8914-1.142 1.6454-1.142 0.6251 0 1.1724 0.3274 1.4842 0.8195 0.0283 0.0332 0.0542 0.0694 0.0747 0.1109l2.0774 4.2584c0.2385 0.4887-0.324 0.9769-0.7745 0.6725"/>
</g>
</svg>
