<?xml version="1.0" encoding="UTF-8"?>
<svg width="25.56mm" height="20.392mm" version="1.1" viewBox="0 0 25.56 20.392" xmlns="http://www.w3.org/2000/svg">
<defs>
<clipPath id="b">
<path d="m228.08 323.82c-15.653-0.1302-28.47-12.881-28.671-28.531-0.1982-15.235 11.382-27.807 26.208-29.182 6.9796-0.6478 14.174 2.2745 18.677 7.6586 1.1534 1.3784 2.126 2.9461 2.8274 4.6007 0.8111 1.9144 1.3014 4.5372 2.8959 5.9802 0.2171 0.1952 0.4495 0.3715 0.7004 0.5205 0.6562 0.393 1.4246 0.6185 2.2542 0.6185 1.9407 0 3.7329-1.4366 4.246-3.3028-0.0303 0.1152-0.0283 0.2345-0.0402 0.3517-0.0368 0.2692-0.0556 0.5419-0.0556 0.8236 0 1.5393 0.5424 2.955 1.4464 4.0637 0.539 0.6602 1.2111 1.2145 1.9731 1.6139 0.8981 0.4799 1.9203 0.7496 3.0107 0.7496 3.5491 0 6.4237-2.8776 6.4237-6.4272 0-1.0958-0.2727-2.1275-0.7595-3.0286 0.7595 1.059 1.4067 2.2174 1.9298 3.4657 2.5145 8.1986-1.8026 17.022-9.954 19.996-1.0064 0.3681-2.0227 0.6314-3.0385 0.7923-0.301 0.0467-0.5981 0.084-0.9011 0.1118-1.9328 0.2012-3.8561 0.0402-5.6861-0.4366-0.0814-0.0249-0.1589-0.0467-0.2394-0.0621-1.4028-0.384-2.7469-0.9572-3.9947-1.7003-0.533-0.313-1.0412-0.6597-1.5369-1.0313-0.5574-0.4217-1.0869-0.8797-1.5851-1.3784-7e-3 -6e-3 -0.0159-0.0124-0.0223-0.0218-6e-3 9e-3 -0.012 0.0159-0.0214 0.0218-0.1182 0.1177-0.2389 0.2355-0.3626 0.3472-7e-3 5e-3 -9e-3 0.0154-0.0154 0.0184-0.387 0.3591-0.7898 0.6969-1.2081 1.0128-0.4917 0.3716-1.0029 0.7183-1.5329 1.0313-1.2513 0.7431-2.5954 1.3163-3.9987 1.7003-0.0804 0.0154-0.1579 0.0372-0.2354 0.0621-3.0783 0.8022-6.4173 0.7058-9.6292-0.4675-2.2392-0.8181-4.1869-2.0728-5.7854-3.6365-4.2183-4.1348-5.9936-10.41-4.1691-16.359 0.5236-1.2483 1.1703-2.4067 1.9328-3.4657-0.4863 0.9011-0.7625 1.9328-0.7625 3.0286 0 3.5496 2.8781 6.4272 6.4277 6.4272 3.5492 0 6.4262-2.8776 6.4262-6.4272l-0.0149-0.8882c1.5951 3.0231 6.4148 2.6039 7.374-0.7262 0.8812-3.0559-2.04-6.6607-4.1656-8.5617-2.433-2.1747-5.538-3.5094-8.7747-3.8665-0.6165-0.0681-1.2359-0.1019-1.8548-0.1019-3.4598 0-6.6592 1.1147-9.2581 3.0048-0.0119 6e-3 -0.0214 0.0149-0.0338 0.0273-0.7063 0.5111-1.369 1.0868-1.979 1.7127-0.4649 0.4461-0.911 0.9011-1.3382 1.3725-4.5128 4.9459-7.2284 11.565-7.1142 18.813 0.232 14.662 12.212 26.62 26.875 26.83 8.3625 0.1177 15.882-3.5308 20.962-9.3569-5.239 7.3849-13.857 12.204-23.6 12.204-0.0845 0-0.1674-5e-4 -0.2524-1e-3m29.142-41.65c-1e-3 4e-3 -2e-3 8e-3 -4e-3 0.0119 1e-3 -4e-3 2e-3 -8e-3 4e-3 -0.0119"/>
</clipPath>
<linearGradient id="a" x2="1" gradientTransform="matrix(72.89 23.325 23.325 -72.89 200.61 286.36)" gradientUnits="userSpaceOnUse">
<stop stop-color="#5f6cae" offset="0"/>
<stop stop-color="#32aea8" offset="1"/>
</linearGradient>
</defs>
<g transform="matrix(.35278 0 0 -.35278 -70.346 114.24)">
<g clip-path="url(#b)">
<path d="m199.41 262.12h209.84v61.706h-209.84z" fill="url(#a)"/>
</g>
</g>
</svg>
